<?xml version="1.0" encoding="UTF-8" standalone="no" ?>
<!DOCTYPE svg PUBLIC "-//W3C//DTD SVG 1.1//EN" "http://www.w3.org/Graphics/SVG/1.1/DTD/svg11.dtd">
<svg xmlns="http://www.w3.org/2000/svg" xmlns:xlink="http://www.w3.org/1999/xlink" version="1.1" width="149.7930368823379" height="149.48140426600185" viewBox="124.88746655095605 79.0292504076312 149.7930368823379 149.48140426600185" xml:space="preserve">
<desc>Created with Fabric.js 4.6.0</desc>
<defs>
</defs>
<g transform="matrix(1.82 0 0 1.82 199.78 153.77)" id="VCOUYx0vtBfMYMJuZmrHp"  >
<path style="stroke: rgb(0,0,0); stroke-width: 4; stroke-dasharray: none; stroke-linecap: butt; stroke-dashoffset: 0; stroke-linejoin: miter; stroke-miterlimit: 4; fill: rgb(252,134,29); fill-rule: nonzero; opacity: 1;" vector-effect="non-scaling-stroke"  transform=" translate(-40, -40)" d="M 64.002 38.692 L 41.308 38.692 L 41.308 25.094 C 48.602 24.901 54.766 23.12 59.564 21.027 C 62.337 26.437 63.823 32.342 64.002 38.692 z M 41.308 2.16 L 41.308 22.477 C 47.964 22.293 53.663 20.721 58.288 18.721 C 56.525999999999996 15.769 54.363 12.974 51.797999999999995 10.345 C 47.724 6.17 43.608 3.488 41.308 2.16 z M 38.692 38.692 L 38.692 25.094 C 31.398 24.901 25.234 23.12 20.436 21.027 C 17.663 26.437 16.177 32.342 15.998000000000001 38.693 L 38.692 38.693 z M 28.202 10.345 C 25.635 12.975000000000001 23.470000000000002 15.772 21.708000000000002 18.727 C 26.195 20.656 31.929000000000002 22.287 38.69200000000001 22.476 L 38.69200000000001 2.16 C 36.392 3.488 32.276 6.17 28.202 10.345 z M 66.62 41.308 C 66.452 47.484 65.08800000000001 53.351 62.55800000000001 58.763 C 62.35300000000001 59.202999999999996 62.13700000000001 59.638999999999996 61.916000000000004 60.073 C 63.132000000000005 60.682 64.23700000000001 61.297 65.22500000000001 61.892 C 67.44500000000001 63.229000000000006 69.266 64.562 70.676 65.706 C 76.248 59.063 79.702 50.585 80 41.309000000000005 L 66.62 41.309000000000005 z M 13.38 38.692 C 13.549000000000001 32.516 14.913 26.649 17.442 21.237000000000002 C 17.648 20.797 17.863 20.361 18.084 19.927000000000003 C 16.868 19.318000000000005 15.763 18.703000000000003 14.774999999999999 18.108000000000004 C 12.554999999999998 16.771000000000004 10.733999999999998 15.438000000000004 9.323999999999998 14.294000000000004 C 3.752 20.938 0.298 29.416 0 38.692 L 13.38 38.692 z M 38.692 41.308 L 15.998 41.308 C 16.177 47.658 17.663 53.563 20.436 58.973 C 25.234 56.879999999999995 31.399 55.099 38.692 54.906 L 38.692 41.308 z M 18.084 60.073 C 17.863 59.639 17.647 59.203 17.442 58.763 C 14.912 53.349999999999994 13.548 47.483999999999995 13.379999999999999 41.308 L 0 41.308 C 0.298 50.584 3.752 59.062 9.324 65.705 C 10.734 64.56099999999999 12.555 63.228 14.774999999999999 61.891 C 15.763 61.297 16.868 60.681 18.084 60.073 z M 26.4 71.554 C 23.624 68.721 21.262999999999998 65.646 19.346999999999998 62.38 C 15.804999999999998 64.151 13.026999999999997 66.099 11.077999999999998 67.665 C 17.726999999999997 74.614 26.854999999999997 79.17 37.041 79.914 C 34.56 78.456 30.496 75.735 26.4 71.554 z M 16.212 15.92 C 17.146 16.479 18.19 17.059 19.34 17.631 C 21.257 14.361 23.621 11.283000000000001 26.4 8.446 C 30.496 4.266 34.56 1.5439999999999996 37.041 0.0860000000000003 C 26.853 0.83 17.723 5.388 11.074 12.34 C 12.408 13.416 14.129 14.671 16.212 15.92 z M 63.788 64.08 C 62.854 63.521 61.809999999999995 62.940999999999995 60.66 62.369 C 58.742999999999995 65.639 56.379 68.717 53.599999999999994 71.554 C 49.50399999999999 75.73400000000001 45.44 78.456 42.958999999999996 79.914 C 53.147999999999996 79.169 62.27799999999999 74.611 68.92699999999999 67.66 C 67.592 66.584 65.871 65.329 63.788 64.08 z M 53.6 8.446 C 56.376000000000005 11.279 58.737 14.354 60.653 17.619999999999997 C 64.195 15.848999999999997 66.973 13.900999999999998 68.92099999999999 12.334999999999997 C 62.273 5.386 53.145 0.83 42.959 0.085 C 45.44 1.544 49.504 4.266 53.6 8.446 z M 41.308 41.308 L 41.308 54.906 C 48.602 55.099 54.766 56.879999999999995 59.564 58.973 C 62.337 53.563 63.823 47.658 64.002 41.308 L 41.308 41.308 z M 51.798 69.655 C 54.365 67.025 56.53 64.22800000000001 58.292 61.273 C 53.805 59.344 48.071 57.713 41.308 57.524 L 41.308 77.84 C 43.608 76.512 47.724 73.83 51.798 69.655 z M 65.224 18.108 C 64.236 18.703 63.131 19.318 61.915000000000006 19.927 C 62.136 20.361 62.352000000000004 20.797 62.55700000000001 21.237 C 65.087 26.65 66.45100000000001 32.516 66.61900000000001 38.69199999999999 L 80 38.69199999999999 C 79.702 29.415999999999993 76.248 20.93799999999999 70.676 14.294999999999995 C 69.266 15.438 67.445 16.771 65.224 18.108 z M 38.692 77.84 L 38.692 57.523 C 32.036 57.707 26.337 59.279 21.712 61.279 C 23.474 64.23100000000001 25.637 67.02600000000001 28.201999999999998 69.655 C 32.276 73.83 36.392 76.512 38.692 77.84 z" stroke-linecap="round" />
</g>
<g transform="matrix(1 0 0 1 199.78 153.77)" style="" id="7H4eXoxa4G5K6C00hD9Ba"  >
		<text xml:space="preserve" font-family="Days One" font-size="25" font-style="normal" font-weight="800" letter-spacing="0.05" line-height="1" style="stroke: none; stroke-width: 1; stroke-dasharray: none; stroke-linecap: butt; stroke-dashoffset: 0; stroke-linejoin: miter; stroke-miterlimit: 4; fill: rgb(255,255,255); fill-rule: nonzero; opacity: 1; white-space: pre;" ><tspan x="-31.63" y="-23.02" >N</tspan><tspan x="-9.9" y="-23.02" >B</tspan><tspan x="10.78" y="-23.02" >A</tspan><tspan x="-25.54" y="5.23" >F</tspan><tspan x="-7.86" y="5.23" >a</tspan><tspan x="8.49" y="5.23" >n</tspan><tspan x="-34.29" y="33.48" >P</tspan><tspan x="-14.15" y="33.48" >a</tspan><tspan x="2.19" y="33.48" >g</tspan><tspan x="18.54" y="33.48" >e</tspan></text>
</g>
</svg>